<svg width="24" height="24" viewBox="0 0 24 24" fill="none" xmlns="http://www.w3.org/2000/svg">
<path d="M12 16.4312C12.2075 16.4312 12.415 16.3481 12.5562 16.1904L18.981 9.60791C19.1221 9.4668 19.2051 9.28418 19.2051 9.07666C19.2051 8.64502 18.8813 8.31299 18.4497 8.31299C18.2422 8.31299 18.0513 8.396 17.9102 8.52881L12 14.5718L6.08154 8.52881C5.94873 8.396 5.75781 8.31299 5.54199 8.31299C5.11035 8.31299 4.78662 8.64502 4.78662 9.07666C4.78662 9.28418 4.86963 9.4668 5.01074 9.61621L11.4355 16.1904C11.5933 16.3481 11.7842 16.4312 12 16.4312Z" fill="#3C3C43" fill-opacity="0.6"/>
</svg>
