<svg width="18" height="18" viewBox="0 0 18 18" fill="none" xmlns="http://www.w3.org/2000/svg">
    <path d="M9.04736 17.4736C13.6792 17.4736 17.5142 13.6304 17.5142 9.00684C17.5142 4.375 13.6709 0.540039 9.03906 0.540039C4.41553 0.540039 0.580566 4.375 0.580566 9.00684C0.580566 13.6304 4.42383 17.4736 9.04736 17.4736ZM9.04736 16.0625C5.12939 16.0625 2 12.9248 2 9.00684C2 5.08887 5.12109 1.95117 9.03906 1.95117C12.957 1.95117 16.0947 5.08887 16.103 9.00684C16.1113 12.9248 12.9653 16.0625 9.04736 16.0625ZM12.3262 6.68262L12.9238 6.07666C13.1895 5.80273 13.2144 5.50391 12.9653 5.24658L12.7744 5.06396C12.5254 4.80664 12.2183 4.83984 11.9526 5.10547L11.3467 5.70312L12.3262 6.68262ZM6.38281 12.6011L11.8281 7.18066L10.8486 6.20117L5.41162 11.6216L4.93848 12.7173C4.85547 12.9248 5.05469 13.1074 5.2373 13.041L6.38281 12.6011Z" fill="#006BB7" />
</svg>
