<svg width="49" height="45" viewBox="0 0 49 45" fill="none" xmlns="http://www.w3.org/2000/svg">
    <path d="M2.13477 18.5352C0.888672 18.5352 0.523438 19.3945 1.25391 20.4043L5.9375 27.0859C6.53906 27.9238 7.37695 27.9238 7.95703 27.0859L12.6406 20.4043C13.3496 19.3945 12.9844 18.5352 11.7598 18.5352H8.19336C9.99805 10.0488 17.5176 3.73242 26.5625 3.73242C36.9395 3.73242 45.3184 12.0898 45.3184 22.4883C45.3184 32.8652 36.9395 41.2871 26.5625 41.2441C20.0312 41.2441 14.3379 37.8926 10.9863 32.8652C10.4922 32.1992 9.69727 31.9844 9.00977 32.3926C8.36523 32.7793 8.17188 33.6816 8.70898 34.4121C12.7266 40.1055 19.1719 44.0371 26.5625 44.0371C38.3574 44.0371 48.1113 34.2832 48.1113 22.4883C48.1113 10.6719 38.3574 0.939453 26.5625 0.939453C16.0996 0.939453 7.24805 8.58789 5.37891 18.5352H2.13477ZM26.541 26.334C27.3574 26.334 27.8516 25.8398 27.8516 24.9375L28.1094 13.4648C28.1309 12.5625 27.4434 11.918 26.541 11.918C25.5957 11.918 24.9512 12.541 24.9727 13.4434L25.209 24.9375C25.2305 25.8184 25.7031 26.334 26.541 26.334ZM26.541 32.9941C27.6152 32.9941 28.5391 32.1348 28.5391 31.0605C28.5391 29.9863 27.6367 29.127 26.541 29.127C25.4453 29.127 24.543 29.9863 24.543 31.0605C24.543 32.1133 25.4668 32.9941 26.541 32.9941Z" fill="#2D9CDB" />
</svg>
