<svg width="53" height="45" viewBox="0 0 53 45" fill="none" xmlns="http://www.w3.org/2000/svg">
    <path d="M30.5 44.0371C42.2949 44.0371 52.0488 34.2832 52.0488 22.4883C52.0488 10.6719 42.2734 0.939453 30.4785 0.939453C19.2852 0.939453 9.96094 9.68359 9.03711 20.6621C9.875 20.5117 11.0137 20.4258 11.8945 20.5117C12.8184 11.0586 20.7461 3.71094 30.4785 3.71094C40.877 3.71094 49.2559 12.0898 49.2559 22.4883C49.2559 27.3867 47.4082 31.834 44.3359 35.1641C42.4238 32.5215 37.2891 29.6855 30.4785 29.6855C28.2441 29.6855 26.1816 30.0078 24.3555 30.5234C24.6133 31.5117 24.7422 32.5645 24.7422 33.6172C24.7422 36.8184 23.5605 39.7617 21.627 42.082C24.334 43.3281 27.3418 44.0371 30.5 44.0371ZM30.4785 26.0117C34.6035 26.0332 37.8047 22.5098 37.8047 17.9121C37.8047 13.5938 34.5605 9.98438 30.4785 9.98438C26.3965 9.98438 23.1309 13.5938 23.1523 17.9121C23.1738 22.5098 26.3535 25.9688 30.4785 26.0117ZM11.5508 44.3379C17.3516 44.3379 22.2285 39.5039 22.2285 33.6602C22.2285 27.7949 17.416 22.9609 11.5508 22.9609C5.70703 22.9609 0.873047 27.7949 0.873047 33.6602C0.873047 39.5254 5.70703 44.3379 11.5508 44.3379ZM10.3047 39.8477C9.98242 39.8477 9.61719 39.6973 9.35938 39.418L5.29883 34.9707C5.12695 34.7773 5.04102 34.4551 5.04102 34.1758C5.04102 33.5098 5.55664 33.0156 6.20117 33.0156C6.60938 33.0156 6.91016 33.209 7.125 33.4453L10.2402 36.8184L15.9551 28.9336C16.1699 28.6328 16.5137 28.418 16.9434 28.418C17.5664 28.418 18.1035 28.9336 18.1035 29.5781C18.1035 29.8145 17.9961 30.0508 17.8242 30.2871L11.2715 39.375C11.0781 39.6758 10.7129 39.8477 10.3047 39.8477Z" fill="#34C759" />
</svg>