<svg width="53" height="45" viewBox="0 0 53 45" fill="none" xmlns="http://www.w3.org/2000/svg">
    <path d="M30.5 44.0371C42.2949 44.0371 52.0488 34.2832 52.0488 22.4883C52.0488 10.6719 42.2734 0.939453 30.4785 0.939453C19.2852 0.939453 9.96094 9.68359 9.03711 20.6621C9.875 20.5117 11.0137 20.4258 11.8945 20.5117C12.8184 11.0586 20.7461 3.71094 30.4785 3.71094C40.877 3.71094 49.2559 12.0898 49.2559 22.4883C49.2559 27.3867 47.4082 31.834 44.3359 35.1641C42.4238 32.5215 37.2891 29.6855 30.4785 29.6855C28.2441 29.6855 26.1816 30.0078 24.3555 30.5234C24.6133 31.5117 24.7422 32.5645 24.7422 33.6172C24.7422 36.8184 23.5605 39.7617 21.627 42.082C24.334 43.3281 27.3418 44.0371 30.5 44.0371ZM30.4785 26.0117C34.6035 26.0332 37.8047 22.5098 37.8047 17.9121C37.8047 13.5938 34.5605 9.98438 30.4785 9.98438C26.3965 9.98438 23.1309 13.5938 23.1523 17.9121C23.1738 22.5098 26.3535 25.9688 30.4785 26.0117ZM11.5508 44.3379C17.3516 44.3379 22.2285 39.5039 22.2285 33.6602C22.2285 27.7949 17.416 22.9609 11.5508 22.9609C5.70703 22.9609 0.873047 27.7949 0.873047 33.6602C0.873047 39.5254 5.70703 44.3379 11.5508 44.3379ZM8.26367 38.666C7.79102 39.1387 7.06055 39.0957 6.58789 38.623C6.11523 38.1504 6.07227 37.4414 6.54492 36.9473L9.89648 33.6172L6.78125 30.459C6.35156 30.0078 6.30859 29.2988 6.78125 28.8691C7.25391 28.418 7.94141 28.4395 8.39258 28.8691L11.5293 31.9844L14.8594 28.6328C15.3535 28.1387 16.0625 28.2246 16.5352 28.6758C17.0078 29.127 17.0723 29.8574 16.5781 30.3516L13.2266 33.7031L16.3418 36.7969C16.793 37.2695 16.8145 37.9785 16.3418 38.4297C15.8906 38.8809 15.1816 38.8594 14.7305 38.4297L11.6152 35.3145L8.26367 38.666Z" fill="#FF3B30" />
</svg>
