<svg width="45" height="45" viewBox="0 0 45 45" fill="none" xmlns="http://www.w3.org/2000/svg">
<path d="M22.5 44.0371C34.2949 44.0371 44.0488 34.2832 44.0488 22.4883C44.0488 10.6719 34.2949 0.939453 22.4785 0.939453C10.6836 0.939453 0.951172 10.6719 0.951172 22.4883C0.951172 34.2832 10.7051 44.0371 22.5 44.0371ZM22.5 41.2441C12.1016 41.2441 3.74414 32.8652 3.74414 22.4883C3.74414 12.0898 12.1016 3.71094 22.4785 3.71094C32.877 3.71094 41.2559 12.0898 41.2773 22.4883C41.2773 32.8652 32.8984 41.2441 22.5 41.2441ZM22.3711 14.3887C23.7031 14.3887 24.7344 13.3574 24.7344 12.0469C24.7344 10.7363 23.7031 9.68359 22.3711 9.68359C21.0605 9.68359 20.0078 10.7363 20.0078 12.0469C20.0078 13.3574 21.0605 14.3887 22.3711 14.3887ZM18.6543 34.2188H27.4629C28.1504 34.2188 28.6875 33.7031 28.6875 33.0371C28.6875 32.3711 28.1504 31.834 27.4629 31.834H24.3691V19.8027C24.3691 18.9219 23.918 18.3203 23.0801 18.3203H18.9336C18.2461 18.3203 17.709 18.8574 17.709 19.502C17.709 20.1895 18.2461 20.7051 18.9336 20.7051H21.748V31.834H18.6543C17.9668 31.834 17.4297 32.3711 17.4297 33.0371C17.4297 33.7031 17.9668 34.2188 18.6543 34.2188Z" fill="#3C3C43" fill-opacity="0.3"/>
</svg>
